<svg aria-hidden="true" style="position: absolute; width: 0; height: 0; overflow: hidden;" version="1.1" xmlns="http://www.w3.org/2000/svg" xmlns:xlink="http://www.w3.org/1999/xlink">
<defs>
<symbol id="icon-star" viewBox="0 0 256 256">
<title>star</title>
<path d="M208,144a15.78,15.78,0,0,1-10.42,14.94l-51.65,19-19,51.61a15.92,15.92,0,0,1-29.88,0L78,178l-51.62-19a15.92,15.92,0,0,1,0-29.88l51.65-19,19-51.61a15.92,15.92,0,0,1,29.88,0l19,51.65,51.61,19A15.78,15.78,0,0,1,208,144ZM152,48h16V64a8,8,0,0,0,16,0V48h16a8,8,0,0,0,0-16H184V16a8,8,0,0,0-16,0V32H152a8,8,0,0,0,0,16Zm88,32h-8V72a8,8,0,0,0-16,0v8h-8a8,8,0,0,0,0,16h8v8a8,8,0,0,0,16,0V96h8a8,8,0,0,0,0-16Z"></path>
</symbol>
<symbol id="icon-peace" viewBox="0 0 256 256">
<title>peace</title>
<path d="M136,143.37l46,32.2a71.86,71.86,0,0,1-46,24ZM56,128a71.61,71.61,0,0,0,8.81,34.48L120,123.84V56.46A72.08,72.08,0,0,0,56,128Zm64,71.54V143.37l-46,32.2A71.86,71.86,0,0,0,120,199.54ZM136,56.46v67.38l55.19,38.64A72,72,0,0,0,136,56.46ZM232,128A104,104,0,1,1,128,24,104.11,104.11,0,0,1,232,128Zm-16,0a88,88,0,1,0-88,88A88.1,88.1,0,0,0,216,128Z"></path>
</symbol>
<symbol id="icon-palette" viewBox="0 0 256 256">
<title>palette</title>
<path d="M200.77,53.89A103.27,103.27,0,0,0,128,24h-1.07A104,104,0,0,0,24,128c0,43,26.58,79.06,69.36,94.17A32,32,0,0,0,136,192a16,16,0,0,1,16-16h46.21a31.81,31.81,0,0,0,31.2-24.88,104.43,104.43,0,0,0,2.59-24A103.28,103.28,0,0,0,200.77,53.89ZM84,168a12,12,0,1,1,12-12A12,12,0,0,1,84,168Zm0-56a12,12,0,1,1,12-12A12,12,0,0,1,84,112Zm44-24a12,12,0,1,1,12-12A12,12,0,0,1,128,88Zm44,24a12,12,0,1,1,12-12A12,12,0,0,1,172,112Z"></path>
</symbol>
</defs>
</svg>
