<svg aria-hidden="true" style="position: absolute; width: 0; height: 0; overflow: hidden;" version="1.1" xmlns="http://www.w3.org/2000/svg" xmlns:xlink="http://www.w3.org/1999/xlink">
<defs>
<symbol id="icon-star" viewBox="0 0 256 256">
<title>star</title>
<path d="M208,144a15.78,15.78,0,0,1-10.42,14.94l-51.65,19-19,51.61a15.92,15.92,0,0,1-29.88,0L78,178l-51.62-19a15.92,15.92,0,0,1,0-29.88l51.65-19,19-51.61a15.92,15.92,0,0,1,29.88,0l19,51.65,51.61,19A15.78,15.78,0,0,1,208,144ZM152,48h16V64a8,8,0,0,0,16,0V48h16a8,8,0,0,0,0-16H184V16a8,8,0,0,0-16,0V32H152a8,8,0,0,0,0,16Zm88,32h-8V72a8,8,0,0,0-16,0v8h-8a8,8,0,0,0,0,16h8v8a8,8,0,0,0,16,0V96h8a8,8,0,0,0,0-16Z"></path>
</symbol>

<symbol id="icon-peace" viewBox="0 0 256 256">
<title>peace</title>
<path d="M136,143.37l46,32.2a71.86,71.86,0,0,1-46,24ZM56,128a71.61,71.61,0,0,0,8.81,34.48L120,123.84V56.46A72.08,72.08,0,0,0,56,128Zm64,71.54V143.37l-46,32.2A71.86,71.86,0,0,0,120,199.54ZM136,56.46v67.38l55.19,38.64A72,72,0,0,0,136,56.46ZM232,128A104,104,0,1,1,128,24,104.11,104.11,0,0,1,232,128Zm-16,0a88,88,0,1,0-88,88A88.1,88.1,0,0,0,216,128Z"></path>
</symbol>

<symbol id="icon-palette" viewBox="0 0 256 256">
<title>palette</title>
<path d="M200.77,53.89A103.27,103.27,0,0,0,128,24h-1.07A104,104,0,0,0,24,128c0,43,26.58,79.06,69.36,94.17A32,32,0,0,0,136,192a16,16,0,0,1,16-16h46.21a31.81,31.81,0,0,0,31.2-24.88,104.43,104.43,0,0,0,2.59-24A103.28,103.28,0,0,0,200.77,53.89ZM84,168a12,12,0,1,1,12-12A12,12,0,0,1,84,168Zm0-56a12,12,0,1,1,12-12A12,12,0,0,1,84,112Zm44-24a12,12,0,1,1,12-12A12,12,0,0,1,128,88Zm44,24a12,12,0,1,1,12-12A12,12,0,0,1,172,112Z"></path>
</symbol>

<symbol id="icon-bubble" viewBox="0 0 256 256">
<title>bubble</title>
<path d="M232,64V192a16,16,0,0,1-16,16H82.5L50.42,236.11a.69.69,0,0,1-.13.11A15.89,15.89,0,0,1,40,240a16.05,16.05,0,0,1-6.79-1.52A15.84,15.84,0,0,1,24,224V64A16,16,0,0,1,40,48H216A16,16,0,0,1,232,64Z"></path>
</symbol>

<symbol id="icon-magic-wand" viewBox="0 0 256 256">
<title>magic-wand</title>
<path d="M248,152a8,8,0,0,1-8,8H224v16a8,8,0,0,1-16,0V160H192a8,8,0,0,1,0-16h16V128a8,8,0,0,1,16,0v16h16A8,8,0,0,1,248,152ZM56,72H72V88a8,8,0,0,0,16,0V72h16a8,8,0,0,0,0-16H88V40a8,8,0,0,0-16,0V56H56a8,8,0,0,0,0,16ZM184,192h-8v-8a8,8,0,0,0-16,0v8h-8a8,8,0,0,0,0,16h8v8a8,8,0,0,0,16,0v-8h8a8,8,0,0,0,0-16ZM219.31,80,80,219.31a16,16,0,0,1-22.62,0L36.68,198.63a16,16,0,0,1,0-22.63L176,36.69a16,16,0,0,1,22.63,0l20.68,20.68A16,16,0,0,1,219.31,80ZM208,68.69,187.31,48l-32,32L176,100.69Z"></path>
<symbol id="icon-hammer" viewBox="0 0 256 256">
<title>hammer</title>
<path d="M251.34,112,183.88,44.08a96.1,96.1,0,0,0-135.77,0l-.09.09L34.25,58.4A8,8,0,0,0,45.74,69.53L59.47,55.35a79.92,79.92,0,0,1,18.71-13.9L124.68,88l-96,96a16,16,0,0,0,0,22.63l20.69,20.69a16,16,0,0,0,22.63,0l96-96,32,32a16,16,0,0,0,22.63,0l28.69-28.69A16,16,0,0,0,251.34,112Zm-89,2.33L140,136.67,119.31,116l22.35-22.35a8,8,0,0,0,0-11.32L94.32,35a80,80,0,0,1,78.23,20.41l44.22,44.51L188,128.66l-14.34-14.34A8,8,0,0,0,162.34,114.32Zm49,37.66-12-12L228,111.25l12,12Z"></path>
</symbol>
<symbol id="icon-arrow-left" viewBox="0 0 256 256">
<title>arrow-left</title>
<path d="M224,128a8,8,0,0,1-8,8H120v64a8,8,0,0,1-13.66,5.66l-72-72a8,8,0,0,1,0-11.32l72-72A8,8,0,0,1,120,56v64h96A8,8,0,0,1,224,128Z"></path>
</symbol>
<symbol id="icon-arrow-right" viewBox="0 0 256 256">
<title>arrow-right</title>
<path d="M221.66,133.66l-72,72A8,8,0,0,1,136,200V136H40a8,8,0,0,1,0-16h96V56a8,8,0,0,1,13.66-5.66l72,72A8,8,0,0,1,221.66,133.66Z"></path>
</symbol>
</defs>
</svg>

<!-- Arrow right -->
<svg xmlns="http://www.w3.org/2000/svg" width="32" height="32" fill="#555555" viewBox="0 0 256 256"><path d="M221.66,133.66l-72,72A8,8,0,0,1,136,200V136H40a8,8,0,0,1,0-16h96V56a8,8,0,0,1,13.66-5.66l72,72A8,8,0,0,1,221.66,133.66Z"></path></svg>


<svg xmlns="http://www.w3.org/2000/svg" width="32" height="32" fill="#555555" viewBox="0 0 256 256"><path d="M224,128a8,8,0,0,1-8,8H120v64a8,8,0,0,1-13.66,5.66l-72-72a8,8,0,0,1,0-11.32l72-72A8,8,0,0,1,120,56v64h96A8,8,0,0,1,224,128Z"></path></svg>