<svg width="656" height="159" viewBox="0 0 656 159" fill="none" xmlns="http://www.w3.org/2000/svg">
<g clip-path="url(#clip0_30_125)">
<path d="M157.667 81.0187C157.029 79.8982 156.174 78.916 155.152 78.1294C154.131 77.3428 152.962 76.7677 151.716 76.4375C147.194 75.274 142.52 74.8062 137.857 75.05C140.358 62.6438 138.482 52.8313 136.607 47.0125C135.842 44.6226 134.215 42.6027 132.043 41.3458C129.871 40.0889 127.309 39.685 124.855 40.2125C118.494 41.6289 112.446 44.1961 107.008 47.7875C103.026 39.654 97.228 32.544 90.0616 27.0062C88.3249 25.704 86.2127 25 84.0418 25C81.871 25 79.7587 25.704 78.0221 27.0062C70.8443 32.5405 65.0354 39.6508 61.0442 47.7875C55.6067 44.1961 49.5584 41.6289 43.1974 40.2125C40.7444 39.6823 38.1818 40.0852 36.01 41.3426C33.8381 42.5999 32.2129 44.6215 31.4517 47.0125C29.5764 52.8313 27.7011 62.6375 30.164 75.05C25.5008 74.8062 20.8276 75.274 16.3054 76.4375C15.0588 76.7677 13.8906 77.3428 12.8688 78.1294C11.847 78.916 10.9923 79.8982 10.3544 81.0187C9.68762 82.1658 9.25581 83.434 9.0841 84.7495C8.91239 86.065 9.0042 87.4016 9.35419 88.6813C11.4733 96.5438 17.9807 111.487 37.6902 123.262C57.3998 135.037 74.7153 135 84.0418 135C93.3684 135 110.715 135 130.3 123.262C150.009 111.487 156.517 96.5438 158.636 88.6813C158.99 87.4036 159.087 86.0682 158.921 84.7527C158.755 83.4372 158.328 82.168 157.667 81.0187ZM42.8161 114.681C26.1695 104.731 20.7624 92.5312 18.9996 86.0625C23.5988 84.9271 28.3723 84.6789 33.0645 85.3312C34.631 89.5267 36.5441 93.5845 38.7842 97.4625C44.2842 106.943 51.4898 115.326 60.0378 122.188C53.9933 120.45 48.2033 117.926 42.8161 114.681ZM84.0106 124C78.1783 119.662 64.0072 106.356 64.0072 79.4812C64.0072 52.9375 77.9971 39.525 84.0106 35C90.0241 39.5375 104.014 52.95 104.014 79.4938C104.014 106.356 89.8428 119.662 84.0106 124ZM149.022 86.075C147.29 92.475 141.895 104.706 125.211 114.681C119.824 117.924 114.034 120.446 107.99 122.181C116.538 115.32 123.743 106.937 129.243 97.4562C131.483 93.5782 133.396 89.5205 134.963 85.325C139.654 84.6787 144.425 84.9312 149.022 86.0688V86.075Z" fill="#F76808"/>
<path d="M209.623 48.124L202.039 46.972V42.172H228.151V46.972L219.895 48.124V73.948H253.687V48.124L245.911 46.972V42.172H271.639V46.972L264.055 48.124V107.836L271.639 108.796V113.5H245.815V108.796L253.687 107.836V79.9H219.895V107.836L228.247 108.796V113.5H201.847V108.796L209.623 107.836V48.124ZM281.367 99.1C281.367 93.084 284.375 88.668 290.391 85.852C296.407 82.972 304.023 81.436 313.239 81.244V78.556C313.239 75.548 312.919 73.18 312.279 71.452C311.639 69.724 310.519 68.476 308.919 67.708C307.383 66.876 305.175 66.46 302.295 66.46C299.031 66.46 296.087 66.94 293.463 67.9C290.903 68.796 288.343 69.916 285.783 71.26L283.383 66.268C284.215 65.564 285.751 64.636 287.991 63.484C290.231 62.332 292.823 61.308 295.767 60.412C298.711 59.516 301.655 59.068 304.599 59.068C309.143 59.068 312.727 59.708 315.351 60.988C318.039 62.204 319.959 64.188 321.111 66.94C322.263 69.692 322.839 73.372 322.839 77.98V108.796H328.503V113.02C327.223 113.34 325.591 113.66 323.607 113.98C321.687 114.3 319.991 114.46 318.519 114.46C316.727 114.46 315.511 114.172 314.871 113.596C314.231 113.084 313.911 111.9 313.911 110.044V106.876C311.991 108.796 309.623 110.556 306.807 112.156C304.055 113.756 300.919 114.556 297.399 114.556C292.791 114.556 288.951 113.244 285.879 110.62C282.871 107.932 281.367 104.092 281.367 99.1ZM301.527 108.028C303.191 108.028 305.111 107.516 307.287 106.492C309.463 105.468 311.447 104.252 313.239 102.844V86.332C306.263 86.332 300.983 87.42 297.399 89.596C293.879 91.708 292.119 94.492 292.119 97.948C292.119 101.404 292.951 103.964 294.615 105.628C296.343 107.228 298.647 108.028 301.527 108.028ZM335.871 108.796L343.071 108.22V67.612L336.159 65.884V60.7L349.407 58.972H349.599L351.711 60.7V62.428L351.423 69.916H351.711C352.351 68.828 353.503 67.42 355.167 65.692C356.831 63.964 358.975 62.396 361.599 60.988C364.223 59.516 367.071 58.78 370.143 58.78C371.423 58.78 372.479 58.94 373.311 59.26V70.012C372.863 69.692 372.127 69.404 371.103 69.148C370.143 68.828 369.055 68.668 367.839 68.668C362.527 68.668 357.599 70.3 353.055 73.564V108.124L365.247 108.892V113.5H335.871V108.796ZM380.052 108.796L385.908 107.932V67.612L378.996 65.884V60.7L392.724 58.972L394.452 60.22L395.028 64.06L394.932 67.132C397.172 65.084 400.212 63.228 404.052 61.564C407.956 59.836 411.444 58.972 414.516 58.972C417.972 58.972 420.756 59.548 422.868 60.7C424.98 61.852 426.58 63.644 427.668 66.076C429.716 64.348 432.564 62.748 436.212 61.276C439.924 59.74 443.38 58.972 446.58 58.972C450.548 58.972 453.652 59.74 455.892 61.276C458.132 62.748 459.7 65.084 460.596 68.284C461.556 71.42 462.036 75.644 462.036 80.956V107.932L468.948 108.796V113.5H446.1V108.796L452.052 107.932V81.244C452.052 77.532 451.764 74.588 451.188 72.412C450.676 70.172 449.652 68.508 448.116 67.42C446.644 66.332 444.5 65.788 441.684 65.788C439.572 65.788 437.332 66.268 434.964 67.228C432.596 68.124 430.58 69.212 428.916 70.492C429.492 72.988 429.78 76.54 429.78 81.148V107.932L436.596 108.796V113.5H413.364V108.796L419.7 107.932V81.052C419.7 77.212 419.444 74.236 418.932 72.124C418.484 70.012 417.588 68.444 416.244 67.42C414.9 66.332 412.852 65.788 410.1 65.788C407.796 65.788 405.332 66.364 402.708 67.516C400.148 68.668 397.908 70.012 395.988 71.548V107.932L402.42 108.796V113.5H380.052V108.796ZM476.179 86.716C476.179 80.956 477.363 75.964 479.731 71.74C482.099 67.516 485.203 64.316 489.043 62.14C492.947 59.9 497.107 58.78 501.523 58.78C509.587 58.78 515.635 61.34 519.667 66.46C523.763 71.58 525.811 78.3 525.811 86.62C525.811 92.444 524.627 97.468 522.259 101.692C519.891 105.916 516.755 109.116 512.851 111.292C509.011 113.468 504.883 114.556 500.467 114.556C492.403 114.556 486.323 111.996 482.227 106.876C478.195 101.756 476.179 95.036 476.179 86.716ZM501.043 109.084C505.459 109.084 508.851 107.26 511.219 103.612C513.587 99.964 514.771 94.556 514.771 87.388C514.771 80.284 513.683 74.652 511.507 70.492C509.331 66.332 505.843 64.252 501.043 64.252C496.627 64.252 493.203 66.076 490.771 69.724C488.403 73.372 487.219 78.78 487.219 85.948C487.219 93.052 488.339 98.684 490.579 102.844C492.819 107.004 496.307 109.084 501.043 109.084ZM540.846 67.612L533.934 65.884V60.7L547.662 58.972H547.95L549.966 60.7V64.732L549.87 67.036C552.174 64.988 555.214 63.132 558.99 61.468C562.766 59.804 566.382 58.972 569.838 58.972C573.87 58.972 576.974 59.74 579.15 61.276C581.39 62.812 582.958 65.18 583.854 68.38C584.75 71.516 585.198 75.772 585.198 81.148V108.028L591.918 108.7V113.5H569.166V108.796L575.118 108.028V81.052C575.118 77.276 574.862 74.332 574.35 72.22C573.838 70.044 572.878 68.444 571.47 67.42C570.062 66.332 568.014 65.788 565.326 65.788C563.022 65.788 560.558 66.364 557.934 67.516C555.31 68.668 552.974 70.012 550.926 71.548V107.932L557.454 108.796V113.5H534.798V108.796L540.846 107.932V67.612ZM607.112 137.404C606.024 137.404 604.936 137.34 603.848 137.212C602.824 137.084 602.088 136.892 601.64 136.636V128.284C602.024 128.54 602.76 128.732 603.848 128.86C605 128.988 606.088 129.052 607.112 129.052C610.184 129.052 612.872 127.964 615.176 125.788C617.544 123.676 619.816 119.58 621.992 113.5H617.384L599.144 65.98L594.728 64.732V60.22H617.864V64.732L610.472 65.884L619.88 94.204L624.296 108.22L628.424 94.108L636.968 65.884L630.536 64.732V60.22H649.832V64.732L645.032 65.884C635.624 94.684 630.088 111.036 628.424 114.94C626.248 120.444 624.264 124.732 622.472 127.804C620.68 130.94 618.568 133.308 616.136 134.908C613.704 136.572 610.696 137.404 607.112 137.404Z" fill="#EEEEEE"/>
</g>
<defs>
<clipPath id="clip0_30_125">
<rect width="656" height="159" fill="white"/>
</clipPath>
</defs>
</svg>
